<?xml version="1.0" standalone="no"?>
<!DOCTYPE svg PUBLIC "-//W3C//DTD SVG 20010904//EN"
 "http://www.w3.org/TR/2001/REC-SVG-20010904/DTD/svg10.dtd">
<svg version="1.0" xmlns="http://www.w3.org/2000/svg"
 width="920.000000pt" height="450.000000pt" viewBox="0 0 920.000000 450.000000"
 preserveAspectRatio="xMidYMid meet">

<g transform="translate(0.000000,450.000000) scale(0.100000,-0.100000)"
fill="#000000" stroke="none">
<path d="M3201 3740 c4 -14 12 -88 18 -165 6 -77 18 -214 26 -305 32 -363 46
-528 70 -810 14 -162 27 -324 30 -360 3 -36 8 -83 10 -105 3 -22 7 -74 10
-115 4 -41 13 -146 21 -233 8 -86 14 -166 14 -178 0 -11 3 -18 8 -16 4 3 6
-19 5 -49 -1 -35 3 -54 10 -54 7 0 5 -5 -3 -10 -8 -5 -10 -10 -5 -10 6 0 10
-25 9 -55 0 -31 2 -58 6 -60 3 -2 6 -29 5 -59 0 -30 3 -52 7 -49 5 2 7 -7 4
-21 -3 -14 0 -28 5 -32 6 -3 5 -12 -3 -22 -8 -10 -9 -13 -1 -9 8 5 13 -3 16
-25 l4 -33 1 33 c1 17 7 32 12 32 6 0 10 5 10 11 0 5 -4 8 -9 4 -5 -3 -13 0
-17 6 -4 8 -3 9 4 5 7 -4 13 -2 13 3 3 26 4 30 11 36 4 4 4 14 1 23 -4 10 -3
14 1 11 11 -11 15 -48 5 -54 -5 -4 -9 -11 -9 -17 0 -7 6 -6 15 2 8 7 16 10 16
6 1 -3 3 -10 4 -16 1 -5 3 -13 4 -17 1 -5 6 -1 12 7 9 13 10 12 5 -2 -3 -10
-1 -20 4 -23 10 -6 11 -2 14 37 0 12 9 22 19 24 15 2 16 0 5 -13 -6 -8 -13
-20 -14 -27 -1 -6 -3 -15 -4 -21 -5 -20 0 -36 10 -30 5 3 7 13 4 23 -5 15 -4
15 6 2 9 -12 11 -10 6 11 -4 19 0 31 12 40 14 11 15 11 5 -1 -19 -21 -16 -34
5 -19 15 13 16 12 3 -3 -7 -10 -10 -25 -7 -34 5 -14 9 -14 24 -3 15 12 16 12
5 -2 -7 -9 -9 -20 -5 -24 4 -5 1 -5 -6 -1 -10 6 -11 1 -6 -21 10 -44 25 -64
19 -26 -3 17 0 35 5 38 6 4 7 12 4 18 -4 7 -1 7 7 -1 8 -7 15 -23 15 -35 1
-12 2 -33 3 -47 1 -20 3 -22 11 -10 5 8 11 12 14 9 3 -2 1 -11 -3 -18 -12 -18
-31 -5 -31 22 -1 21 -1 21 -15 -3 -8 -14 -14 -19 -15 -12 0 7 -5 10 -11 7 -6
-4 -10 -1 -8 6 1 8 1 25 0 39 -1 22 -2 23 -17 8 -16 -16 -11 -43 7 -33 5 4 6
-2 2 -11 -4 -11 -8 -13 -11 -6 -2 7 -9 9 -14 6 -8 -5 -9 7 -5 36 4 29 2 39 -4
29 -7 -12 -9 -12 -9 1 0 13 -1 13 -10 0 -9 -13 -10 -13 -10 0 0 12 -2 12 -9 1
-6 -9 -11 -10 -15 -2 -4 6 -3 11 2 11 5 0 8 10 6 23 -4 34 -6 34 -15 2 l-8
-30 3 33 c1 18 -1 35 -6 38 -8 5 -11 -5 -10 -46 l1 -25 -9 25 -9 25 2 -25 c1
-14 -3 -32 -8 -40 -7 -13 -6 -13 7 -2 10 8 19 9 22 3 4 -5 2 -12 -4 -16 -12
-7 -14 -36 -2 -34 4 1 9 0 12 -1 3 -1 14 -4 25 -6 37 -9 40 -10 50 -16 9 -5
785 -225 917 -260 46 -12 58 -9 565 131 494 136 614 173 600 188 -4 3 -12 1
-19 -4 -23 -18 -157 -53 -221 -58 -20 -1 -41 -6 -45 -10 -4 -5 -1 -5 7 0 9 5
12 4 8 -3 -8 -12 -25 -11 -46 2 -10 6 -12 5 -7 -2 4 -7 2 -13 -3 -13 -12 -2
-12 -2 -52 -13 -14 -4 -34 -9 -45 -11 -10 -2 -20 -4 -21 -5 -2 -2 -12 -4 -23
-5 -11 -1 -22 -4 -25 -5 -3 -1 -13 -3 -22 -4 -10 -1 -24 -5 -32 -10 -9 -6 -12
-5 -7 2 3 6 2 13 -4 17 -5 3 -10 0 -10 -7 0 -9 -3 -9 -10 2 -9 13 -10 13 -11
0 -1 -8 -1 -19 0 -24 1 -5 -4 -4 -12 2 -10 9 -17 9 -27 -1 -10 -10 -11 -9 -4
3 13 23 14 42 1 37 -7 -2 -12 -9 -12 -15 0 -6 -6 -17 -14 -24 -12 -11 -12 -10
-5 2 4 8 9 30 10 49 1 31 0 33 -11 17 -8 -10 -12 -26 -10 -36 2 -10 -4 -25
-13 -32 -15 -11 -15 -11 -6 2 13 18 12 46 -2 43 -5 -1 -11 10 -12 24 -3 35
-21 56 -37 43 -8 -7 -18 -3 -34 13 -16 18 -18 24 -7 24 8 0 13 -4 11 -8 -3 -3
1 -12 9 -18 28 -24 54 42 31 79 -13 20 -15 41 -4 34 5 -3 7 -9 4 -14 -3 -4 1
-13 9 -19 13 -11 16 -48 3 -67 -4 -7 1 -18 10 -25 15 -12 16 -12 10 3 -3 10
-3 20 2 22 12 8 7 52 -8 70 -7 9 -10 16 -6 16 5 0 0 10 -11 23 -19 22 -19 22
2 4 11 -9 25 -14 29 -10 5 5 4 1 -3 -8 -10 -13 -10 -19 1 -28 14 -11 17 -48 4
-67 -4 -7 2 -23 13 -35 11 -13 19 -19 20 -13 0 5 -5 15 -12 22 -9 9 -9 15 -1
23 6 6 9 19 6 28 -4 13 -3 13 5 2 8 -11 11 -10 14 5 2 10 -5 32 -16 48 -11 16
-15 26 -9 23 7 -4 16 0 21 9 8 15 10 15 16 -1 5 -14 9 -15 21 -5 21 18 19 35
-2 19 -15 -11 -16 -11 -5 1 16 18 16 35 -1 22 -10 -8 -13 -6 -14 11 0 12 1 16
4 9 3 -6 9 -10 14 -6 5 3 0 20 -12 37 l-21 32 24 -28 24 -27 22 23 c20 21 20
25 6 38 -13 14 -13 17 3 30 16 13 17 12 5 -2 -10 -13 -9 -19 5 -30 15 -12 16
-12 10 3 -3 10 -2 20 4 24 7 4 4 13 -6 24 -14 16 -14 18 2 31 16 12 17 12 6
-2 -11 -13 -9 -19 7 -34 21 -19 25 -79 5 -68 -5 4 -7 3 -3 -2 4 -4 3 -14 -2
-21 -16 -18 -21 -56 -8 -48 7 4 8 2 4 -5 -4 -6 -12 -9 -17 -6 -9 6 -13 -7 -10
-35 2 -13 1 -13 -9 0 -8 12 -9 9 -6 -13 3 -15 1 -25 -5 -22 -5 3 -6 -2 -3 -12
5 -15 4 -16 -5 -3 -9 12 -10 9 -6 -15 4 -24 4 -26 -4 -10 -9 18 -10 18 -8 -5
1 -14 6 -31 11 -39 7 -10 6 -12 -4 -6 -8 5 -11 4 -6 -3 4 -6 12 -10 19 -8 7 1
9 1 5 -1 -5 -3 -8 -12 -8 -21 0 -13 3 -12 15 4 8 10 15 14 15 8 0 -5 -4 -14
-10 -20 -6 -6 -6 -15 0 -24 9 -13 10 -13 10 0 1 11 4 10 15 -4 11 -14 15 -16
15 -5 0 12 2 12 10 -1 9 -13 10 -13 10 0 0 12 2 12 9 2 6 -11 10 -10 15 4 5
13 9 15 14 7 5 -9 12 -5 21 10 13 20 13 21 -3 8 -14 -12 -16 -11 -13 5 1 11 7
26 12 34 8 13 7 13 -8 1 -9 -7 -15 -17 -12 -21 2 -4 -2 -16 -10 -26 -14 -18
-15 -18 -11 6 5 33 -12 54 -30 39 -10 -8 -14 -8 -14 -1 0 6 5 14 10 17 8 5 8
11 0 20 -8 9 -8 15 0 20 6 4 10 12 8 18 -4 21 12 55 25 53 16 -2 20 -21 5 -21
-7 0 -13 -10 -14 -21 -1 -12 -4 -26 -8 -32 -3 -5 2 -20 12 -33 15 -17 21 -19
27 -9 5 8 4 11 -3 6 -15 -9 -33 26 -22 44 4 7 6 19 3 26 -3 9 2 12 16 9 26 -5
35 9 16 25 -8 7 -13 16 -10 20 3 5 1 11 -5 15 -6 4 -5 13 2 25 7 10 16 16 20
13 5 -2 4 -11 -2 -18 -8 -9 -8 -15 0 -20 6 -3 7 -11 4 -17 -5 -7 -2 -8 7 -2 8
5 19 9 24 9 6 0 10 14 10 30 0 27 -3 30 -30 30 -36 0 -59 31 -40 55 7 8 10 22
7 30 -5 13 -3 13 12 1 15 -13 15 -15 -1 -34 -10 -11 -13 -17 -6 -14 6 4 16 0
21 -9 6 -11 9 0 7 37 -1 30 3 60 9 68 8 11 8 13 -1 7 -9 -5 -13 1 -13 20 0 35
-7 28 -11 -11 -2 -16 -9 -38 -17 -47 -8 -9 -11 -21 -8 -27 4 -5 2 -12 -4 -16
-6 -3 -10 4 -10 16 0 12 -8 31 -17 42 -10 11 -13 17 -6 14 6 -4 14 -1 17 5 3
7 4 4 3 -6 -1 -10 3 -21 10 -23 8 -3 10 3 8 16 -3 12 -7 30 -9 41 -3 12 -1 18
5 15 5 -4 7 -10 5 -14 -3 -4 0 -13 5 -21 8 -11 9 -7 7 17 -3 18 -1 30 3 27 5
-3 14 4 21 16 7 11 17 20 22 20 5 0 1 -9 -8 -19 -12 -13 -14 -21 -6 -26 6 -4
9 -1 8 7 -2 7 2 12 9 11 7 -2 10 6 8 16 -2 12 5 22 20 29 46 21 56 53 71 214
7 84 13 173 12 198 0 25 -8 -43 -18 -150 -9 -108 -23 -206 -29 -219 -7 -12
-27 -29 -44 -36 -46 -19 -695 -205 -716 -205 -18 0 -665 192 -714 212 -50 20
-55 37 -73 301 l-18 247 22 23 c21 21 32 22 186 25 205 4 196 10 196 -136 0
-59 4 -113 9 -121 10 -15 350 -111 396 -111 50 1 379 88 390 104 14 18 41 409
30 426 -6 9 -149 10 -614 5 -384 -4 -611 -3 -620 3 -21 15 -47 320 -29 338 11
11 141 15 646 20 430 5 637 11 647 18 19 15 40 283 24 303 -9 11 -131 13 -656
13 -589 0 -647 1 -674 17 -15 9 -30 22 -33 29 -3 7 -10 85 -17 173 -10 128
-10 164 0 174 9 9 215 13 904 17 728 4 974 9 694 14 -26 0 -36 4 -33 13 3 7 0
15 -6 19 -7 4 -8 3 -4 -4 3 -6 -2 -16 -13 -22 -14 -7 -22 -7 -26 0 -5 8 -11 7
-21 -1 -9 -7 -14 -8 -12 -3 2 5 -1 9 -7 9 -5 0 -8 -4 -7 -10 2 -5 0 -6 -5 -2
-4 5 -8 14 -8 20 0 7 -14 12 -32 11 -17 0 -31 2 -30 5 1 3 -2 6 -8 6 -5 0 -9
-4 -7 -9 2 -5 -3 -4 -11 2 -8 7 -12 23 -9 37 5 28 22 35 17 8 -1 -10 0 -12 2
-5 3 7 9 10 14 6 5 -3 6 -10 3 -16 -5 -7 -2 -8 5 -4 9 6 8 13 -5 27 -9 10 -14
19 -9 19 4 0 3 6 -4 13 -8 10 -7 17 2 27 10 12 9 12 -6 1 -13 -10 -14 -17 -6
-27 8 -10 6 -13 -10 -11 -25 2 -26 6 -7 33 13 17 13 21 1 21 -8 0 -12 -3 -10
-7 2 -4 -2 -16 -10 -26 -13 -18 -14 -17 -10 13 2 21 -1 32 -8 30 -7 -1 -12 11
-11 30 0 18 -3 30 -8 27 -4 -3 -8 0 -8 7 0 7 -3 10 -6 6 -3 -3 -2 -12 2 -19
11 -18 13 -58 2 -64 -4 -3 -8 7 -8 23 0 15 -4 35 -10 43 -5 9 -5 19 2 27 7 9
7 13 -1 13 -11 0 -15 -12 -12 -40 1 -9 -6 -6 -18 9 -19 24 -18 57 1 45 6 -4 4
4 -2 16 l-12 23 -20 -24 c-14 -17 -18 -19 -14 -6 3 10 2 16 -3 13 -20 -12 -41
36 -45 101 -1 18 -4 34 -7 38 -7 6 -3 -59 5 -94 3 -13 12 -31 21 -41 13 -14
13 -19 2 -28 -14 -12 -27 -7 -27 10 0 5 5 6 12 2 7 -4 8 -3 4 5 -15 23 -25 -1
-19 -46 4 -33 2 -44 -6 -39 -6 4 -9 12 -6 17 4 5 3 15 -2 22 -12 18 -11 30 3
53 8 14 9 25 3 35 -8 12 -10 12 -8 -1 3 -22 -12 -51 -23 -44 -5 3 -5 11 2 19
6 7 10 17 9 21 -4 22 2 35 13 28 7 -5 8 -3 2 7 -13 21 -12 78 1 89 18 15 36
-11 38 -53 2 -30 10 -41 13 -19 0 4 3 14 7 22 3 8 8 22 11 30 3 8 5 1 3 -17
-4 -39 9 -34 15 6 3 22 0 28 -11 26 -9 -1 -19 3 -23 9 -5 8 -8 7 -8 -2 0 -7
-5 -10 -10 -7 -6 4 -7 12 -3 18 14 23 10 33 -13 33 -12 0 -20 -4 -18 -8 6 -10
-30 -11 -40 -1 -9 9 -55 12 -54 4 2 -20 -4 -22 -17 -5 -15 19 -15 19 -8 -1 l6
-20 -23 20 c-13 11 -20 15 -17 8 4 -6 3 -14 -2 -17 -5 -3 -12 1 -15 10 -4 9
-9 14 -13 11 -3 -4 -12 -2 -18 3 -9 8 -15 6 -19 -7 -4 -10 -4 -14 0 -10 4 4
13 2 21 -4 10 -9 13 -8 13 1 0 8 2 11 5 8 3 -3 2 -13 -1 -22 -5 -14 -9 -15
-15 -4 -7 10 -9 10 -9 -2 0 -13 -1 -13 -10 0 -7 11 -8 3 -4 -25 7 -47 14 -58
15 -24 1 23 1 22 9 -4 5 -16 6 -36 4 -45 -3 -10 1 -6 9 8 l15 25 0 -25 c0 -45
11 -133 18 -139 4 -3 4 10 1 29 -5 25 -4 30 3 18 5 -9 14 -40 19 -70 9 -53 9
-53 11 -13 l3 40 7 -40 c5 -29 8 -33 9 -14 2 47 13 89 22 84 4 -3 3 -19 -3
-35 -12 -37 -1 -118 12 -85 5 11 10 34 11 50 l2 30 7 -35 7 -35 2 31 c0 17 8
37 16 44 17 14 21 0 4 -17 -6 -6 -9 -21 -6 -34 4 -22 4 -21 6 4 0 16 5 26 10
23 5 -3 7 -16 5 -29 -4 -21 -4 -21 6 2 6 13 13 21 16 18 3 -3 1 -14 -5 -26 -6
-11 -7 -22 -2 -25 13 -8 20 4 14 22 -3 10 5 4 18 -12 16 -20 19 -31 11 -34 -7
-2 -9 -9 -5 -15 4 -7 -1 -6 -10 2 -14 11 -17 11 -17 0 -1 -9 -4 -8 -11 4 -8
14 -14 16 -25 6 -7 -6 -12 -15 -9 -19 3 -5 -3 -7 -12 -5 -10 2 -18 4 -18 5 0
1 -8 3 -18 5 -13 2 -17 -1 -13 -11 3 -9 1 -12 -4 -9 -6 4 -9 13 -8 20 2 8 -1
13 -7 12 -5 -1 -9 -6 -7 -11 2 -5 -4 -4 -12 4 -19 15 -20 21 -4 17 6 -1 13 7
15 18 3 15 2 16 -5 7 -12 -17 -21 4 -23 51 -2 29 -2 28 -8 -8 -6 -39 -21 -50
-46 -35 -13 8 -27 7 -43 -4 -11 -6 -11 -11 0 -24 9 -12 6 -11 -10 2 -23 20
-28 28 -13 23 5 -1 9 3 9 8 0 6 -3 9 -8 8 -4 -1 -7 6 -7 15 0 33 -3 43 -11 38
-5 -3 -8 -23 -7 -45 1 -22 -1 -38 -5 -36 -4 2 -6 17 -5 32 1 15 -3 34 -8 41
-5 7 -7 15 -4 19 9 8 -12 45 -22 38 -8 -4 -8 36 0 62 2 6 0 11 -6 12 -5 1 -11
-3 -11 -9 -1 -5 -3 -12 -4 -15 -13 -26 3 -81 20 -70 5 3 7 -3 5 -12 -1 -10 2
-23 7 -30 6 -7 4 -14 -4 -19 -7 -4 -10 -4 -6 1 4 4 3 14 -3 22 -6 7 -8 13 -4
13 5 0 0 9 -11 21 -20 22 -27 66 -12 75 5 3 4 12 -3 20 -6 8 -9 17 -5 21 3 3
6 1 6 -6 0 -7 5 -9 10 -6 8 5 7 11 -1 21 -6 8 -8 14 -3 14 4 0 -2 10 -14 23
-14 15 -18 27 -12 36 4 8 6 21 3 30 -4 14 -3 14 6 1 9 -13 11 -13 11 0 0 12 2
12 9 1 6 -9 11 -10 15 -2 4 6 13 11 19 11 7 0 6 -4 -3 -10 -9 -6 -11 -10 -3
-10 7 0 10 -7 6 -17 -4 -10 -2 -14 4 -10 6 4 11 18 11 32 0 23 -4 25 -34 21
-19 -2 -37 1 -40 6 -10 16 -23 -2 -18 -27 2 -13 -1 -27 -7 -30 -7 -5 -3 -15
11 -30 18 -19 20 -27 11 -43 -7 -14 -8 -23 -1 -27 6 -4 7 -12 3 -18 -14 -22
-10 -52 11 -74 11 -13 16 -23 12 -23 -5 0 -2 -8 5 -17 13 -16 12 -17 -3 -4
-10 7 -16 17 -13 21 2 4 -4 15 -14 24 -18 16 -22 51 -8 73 4 6 3 14 -3 18 -7
4 -7 12 0 25 13 24 13 33 0 25 -6 -4 -9 -2 -8 3 2 6 -1 10 -7 11 -5 1 -10 -3
-10 -8 0 -5 -3 -12 -7 -16 -7 -8 -5 15 3 30 9 17 4 40 -9 37 -10 -2 -10 3 -2
18 6 11 15 18 20 15 6 -4 7 2 3 11 -4 11 -8 13 -11 6 -2 -7 -9 -9 -15 -5 -7 4
-56 8 -110 8 -83 0 -97 -2 -92 -15 4 -13 4 -13 -7 0 -7 8 -28 15 -46 16 -26 0
-32 -3 -27 -15 3 -11 0 -10 -10 3 -11 14 -15 16 -15 5 0 -12 -2 -12 -10 1 -9
13 -10 13 -10 0 0 -13 -1 -13 -10 0 -9 13 -10 13 -10 0 0 -9 -3 -11 -8 -5 -10
14 -52 15 -52 1 0 -7 -3 -7 -8 1 -6 9 -97 13 -369 15 l-360 3 8 -25z m965 -15
c1 -8 -5 -20 -14 -27 -15 -11 -15 -11 -6 2 6 8 10 23 8 33 -1 11 0 16 4 13 3
-4 7 -13 8 -21z m51 13 c-2 -7 5 -24 17 -38 l21 -25 -27 24 c-22 19 -29 51
-11 51 3 0 3 -6 0 -12z m47 0 c-3 -5 -10 -6 -15 -3 -5 4 -9 2 -9 -4 0 -21 19
-21 34 0 15 22 15 22 13 1 0 -11 -4 -20 -8 -19 -4 1 -6 -2 -5 -8 0 -5 4 -9 9
-7 12 4 8 -5 -10 -19 -10 -7 -15 -9 -10 -4 4 4 -2 19 -14 31 -22 24 -20 41 5
41 8 0 13 -4 10 -9z m62 -2 c-1 -6 -4 -15 -7 -21 -4 -5 -5 -18 -3 -28 1 -11 0
-16 -3 -13 -4 3 -13 0 -22 -6 -15 -12 -15 -11 0 7 9 11 15 32 14 46 -1 15 4
26 11 26 6 0 11 -5 10 -11z m400 -9 c4 -4 16 -7 26 -7 11 0 16 -5 13 -10 -4
-6 -10 -8 -13 -6 -4 2 -8 -21 -10 -52 -1 -31 -2 -65 -2 -74 -1 -10 -6 -20 -11
-24 -6 -4 -5 -11 3 -21 17 -21 18 -40 2 -54 -17 -14 -18 -5 -4 22 8 14 8 19
-2 17 -15 -4 -18 20 -5 46 6 13 6 16 -2 12 -6 -4 -11 -3 -11 3 0 5 4 12 9 16
6 3 10 13 10 23 2 58 -2 103 -8 97 -2 -3 -10 0 -18 7 -8 6 -13 7 -12 2 3 -18
-1 -25 -11 -19 -8 5 -8 11 0 20 11 13 34 14 46 2z m69 4 c3 -5 1 -12 -5 -16
-5 -3 -10 1 -10 9 0 18 6 21 15 7z m-155 -20 c0 -4 -7 -16 -16 -27 -14 -18
-15 -18 -10 6 3 14 3 19 0 12 -3 -6 -9 -10 -14 -7 -4 3 -8 -1 -7 -8 0 -6 -1
-21 -2 -32 -3 -17 -4 -17 -10 5 -4 14 -13 24 -20 22 -7 -1 -10 2 -6 8 3 6 11
8 16 5 5 -4 12 1 15 9 3 9 10 14 14 11 5 -3 11 -1 15 5 7 11 25 4 25 -9z m44
-44 c-3 -9 -10 -14 -16 -11 -5 3 -4 12 4 22 8 10 8 13 1 9 -6 -4 -13 -4 -16 0
-2 5 -2 2 0 -5 1 -8 -2 -10 -9 -6 -7 5 -8 3 -3 -6 6 -9 4 -11 -5 -5 -8 5 -11
4 -6 -3 3 -6 2 -13 -4 -17 -15 -9 -12 10 8 44 16 29 18 30 35 13 10 -11 15
-25 11 -35z m34 15 c6 -29 2 -73 -8 -87 -9 -13 -7 -66 3 -82 4 -7 3 -21 -3
-32 -5 -11 -11 -32 -11 -48 -2 -24 -2 -25 -6 -5 -3 13 0 36 6 52 7 20 7 32 -1
36 -5 3 -8 17 -5 30 2 13 0 21 -4 18 -5 -3 -9 -1 -9 5 0 5 5 13 10 16 6 4 7
11 4 17 -4 6 -3 9 2 6 5 -4 10 9 10 28 2 46 -11 30 -15 -19 -1 -5 -5 -5 -11
-2 -6 4 -4 17 5 35 8 16 15 33 14 37 -5 31 12 26 19 -5z m99 -24 c-3 -7 -5 -2
-5 12 0 14 2 19 5 13 2 -7 2 -19 0 -25z m-180 -19 c15 22 38 19 29 -4 -3 -8 2
-19 10 -26 9 -8 11 -16 5 -23 -6 -7 -8 -21 -5 -32 2 -10 0 -32 -5 -49 -9 -29
-9 -29 -11 -5 l-2 25 -8 -25 c-6 -18 -8 -20 -9 -7 -1 10 -6 28 -13 40 -14 26
-17 38 -22 97 -4 40 -3 42 6 17 10 -28 10 -28 25 -8z m-311 4 c-1 -7 -8 -19
-16 -26 -12 -10 -12 -9 -2 4 8 10 8 19 1 26 -6 6 -5 10 5 10 7 0 13 -6 12 -14z
m-71 -12 c3 -5 2 -12 -3 -15 -5 -3 -9 1 -9 9 0 17 3 19 12 6z m107 -13 c-8 -8
-8 -15 -1 -24 7 -8 6 -14 -3 -20 -7 -4 -10 -3 -5 1 4 5 -1 17 -10 28 -10 11
-13 17 -6 14 6 -4 14 -3 18 3 3 5 9 10 13 10 3 0 1 -5 -6 -12z m-11 -65 c13
-16 12 -17 -3 -4 -17 13 -22 21 -14 21 2 0 10 -8 17 -17z m511 -30 c-8 -14 -6
-25 9 -43 10 -14 19 -29 19 -35 0 -5 -5 -3 -10 5 -9 13 -10 13 -10 0 0 -13 -2
-13 -9 -1 -5 8 -7 21 -4 30 4 14 3 14 -6 1 -10 -15 -12 -13 -15 12 -1 15 -23
22 -31 9 -4 -7 0 -8 11 -4 11 4 15 2 11 -4 -4 -6 0 -16 8 -23 8 -7 15 -17 15
-23 0 -6 -11 0 -25 13 l-24 23 4 -23 c5 -26 15 -40 15 -21 0 7 5 9 10 6 8 -5
7 -12 -2 -23 -7 -9 -8 -13 -2 -9 14 8 38 -18 30 -31 -3 -5 1 -9 8 -9 9 0 12 7
9 16 -4 11 0 9 11 -4 l16 -20 -6 20 c-4 15 -1 13 10 -5 8 -14 15 -20 15 -15 1
15 -17 40 -29 40 -5 0 -9 5 -7 10 1 6 6 9 10 7 5 -1 6 1 3 6 -2 4 -1 14 5 22
6 11 9 7 9 -15 0 -39 15 -64 24 -40 8 22 28 8 21 -15 -6 -19 26 -46 39 -33 3
4 1 -9 -6 -27 -6 -19 -13 -29 -16 -22 -2 7 -8 10 -13 7 -5 -4 -6 2 -2 12 6 16
5 16 -11 4 -9 -8 -16 -10 -15 -5 4 21 -2 24 -22 14 -19 -11 -20 -10 -9 9 7 14
7 21 0 21 -5 0 -10 -6 -10 -12 0 -9 -4 -8 -10 2 -5 8 -10 13 -11 10 0 -3 -2
-15 -5 -28 -3 -16 0 -21 8 -16 6 4 8 3 5 -4 -7 -11 -24 -11 -42 -1 -5 4 -18 5
-27 4 -11 -2 -15 2 -11 12 5 12 7 12 14 1 5 -7 9 -9 9 -4 0 5 7 3 15 -4 9 -8
15 -9 15 -2 0 6 -4 14 -10 17 -5 3 -10 12 -9 18 0 9 2 8 6 -1 2 -6 9 -10 14
-6 5 3 -5 25 -22 48 -28 40 -57 122 -39 111 5 -3 12 0 15 6 4 5 13 8 21 5 8
-3 20 3 26 14 15 24 23 18 10 -7z m-481 -30 c13 -16 12 -17 -3 -4 -17 13 -22
21 -14 21 2 0 10 -8 17 -17z m20 -40 c13 -16 12 -17 -3 -4 -10 7 -18 15 -18
17 0 8 8 3 21 -13z m469 -28 c-5 -7 -6 -16 -2 -21 4 -4 -1 -2 -10 5 -20 15
-17 28 6 28 11 0 13 -4 6 -12z m-250 -45 c-11 -21 -30 -19 -30 3 0 8 3 8 9 -1
7 -11 9 -11 14 2 4 9 9 16 12 16 3 0 1 -9 -5 -20z m-50 -25 c14 -19 14 -19 -2
-6 -10 7 -18 18 -18 24 0 6 1 8 3 6 1 -2 9 -13 17 -24z m-1119 -2089 c-8 -9
-4 -19 13 -35 23 -21 28 -43 14 -57 -4 -3 -5 2 -3 13 1 10 -8 30 -22 44 -16
18 -21 29 -14 34 6 3 8 11 5 17 -4 7 -2 8 5 4 8 -6 9 -12 2 -20z m5 -80 c-1
-14 -4 -28 -7 -31 -3 -3 -5 7 -4 22 1 16 -3 35 -9 43 -9 13 -9 13 5 3 9 -7 15
-24 15 -37z m1562 28 c-1 -5 -9 -9 -16 -10 -10 -2 -11 1 -1 12 12 14 24 13 17
-2z m189 -9 c0 -8 -4 -12 -9 -9 -5 3 -6 10 -3 15 9 13 12 11 12 -6z m-234 -20
c-3 -9 -8 -14 -10 -11 -3 3 -2 9 2 15 9 16 15 13 8 -4z m106 -19 c9 -10 7 -17
-6 -27 -16 -12 -17 -12 -6 2 10 12 10 18 1 27 -7 7 -9 12 -6 12 3 0 11 -6 17
-14z m-1593 -18 c4 -7 3 -9 -1 -5 -5 4 -14 -2 -20 -14 -11 -19 -13 -19 -18 -5
-4 10 -3 15 2 12 5 -3 11 1 15 9 7 18 13 19 22 3z m1339 -7 c3 -5 2 -12 -3
-15 -5 -3 -9 1 -9 9 0 17 3 19 12 6z m185 -5 c0 -2 -8 -10 -17 -17 -16 -13
-17 -12 -4 4 13 16 21 21 21 13z m160 -22 c7 -18 7 -31 0 -39 -8 -9 -8 -15 0
-20 6 -3 8 -11 4 -16 -3 -5 -9 -7 -14 -4 -11 7 -42 -50 -33 -58 3 -4 0 -13 -6
-21 -9 -10 -9 -16 -1 -21 8 -5 8 -11 -1 -21 -9 -11 -9 -18 -1 -26 7 -7 12 -21
12 -31 0 -15 -3 -17 -13 -8 -8 6 -18 7 -23 3 -4 -4 -2 2 6 12 14 17 12 21 -11
38 -25 19 -26 21 -12 49 8 17 16 35 17 42 1 7 5 18 10 25 4 7 5 16 2 19 -3 4
3 13 15 21 14 10 17 17 10 26 -7 9 -6 19 5 34 19 28 22 28 34 -4z m-1696 -16
c-5 -7 -9 -16 -9 -20 0 -3 -3 -9 -7 -13 -8 -8 -4 13 7 38 4 10 10 16 12 13 3
-3 1 -11 -3 -18z m1497 5 c13 -16 12 -17 -3 -4 -10 7 -18 15 -18 17 0 8 8 3
21 -13z m-1430 -6 c-7 -7 -7 -16 1 -26 10 -13 10 -14 -2 -4 -19 17 -21 40 -4
40 10 0 11 -4 5 -10z m1695 -22 c0 -21 -3 -22 -35 -16 -2 1 2 7 8 14 6 8 9 16
6 19 -3 2 1 5 8 5 7 0 13 -10 13 -22z m-1560 -63 c-3 -3 0 -12 6 -21 10 -13
10 -14 -2 -4 -16 15 -23 46 -8 37 5 -3 7 -9 4 -12z m1250 -46 c-1 -14 -4 -28
-7 -31 -3 -3 -5 7 -4 22 1 16 -3 35 -9 43 -9 13 -9 13 5 3 9 -7 15 -24 15 -37z
m-1199 7 c0 -9 -4 -10 -14 -2 -7 6 -13 12 -13 14 0 1 6 2 13 2 8 0 14 -6 14
-14z m47 1 c3 -8 2 -12 -4 -9 -6 3 -10 10 -10 16 0 14 7 11 14 -7z m-249 -33
c-3 -11 0 -9 11 4 16 20 16 20 11 -2 -3 -13 -3 -23 -1 -23 3 0 9 10 14 23 8
21 9 21 9 -5 1 -24 -2 -26 -26 -22 -37 7 -46 14 -34 28 7 9 7 17 -2 26 -10 12
-9 12 6 0 10 -7 15 -20 12 -29z m177 -6 c-6 -34 -13 -32 -10 4 1 16 5 28 9 26
3 -3 4 -16 1 -30z m54 9 c1 -9 0 -13 -4 -10 -3 4 -7 14 -8 22 -1 9 0 13 4 10
3 -4 7 -14 8 -22z m38 -47 c12 10 16 12 9 3 -6 -8 -11 -19 -11 -25 0 -5 5 -17
11 -25 7 -8 2 -7 -10 3 -16 14 -22 15 -27 5 -3 -8 -5 -7 -3 4 1 9 -2 17 -8 16
-5 0 -9 -4 -8 -8 1 -5 -4 -7 -13 -6 -16 2 -20 20 -4 22 6 1 12 2 15 3 3 0 1
11 -5 24 -8 16 -6 15 11 -6 21 -27 22 -27 43 -10z m1098 -11 c-3 -6 -7 -14 -7
-18 0 -3 -3 -9 -7 -13 -3 -4 -5 0 -4 9 1 8 5 19 9 22 4 4 -1 17 -10 28 -18 21
-18 21 4 2 13 -10 19 -24 15 -30z m-1102 28 c0 -8 -19 -13 -24 -6 -3 5 1 9 9
9 8 0 15 -2 15 -3z m47 -32 c-10 -10 -16 -21 -15 -23 2 -2 1 -3 -1 -1 -3 1 -6
9 -7 17 -1 8 2 13 6 10 5 -3 11 -1 15 5 3 5 9 10 12 10 3 0 -1 -8 -10 -18z
m1108 -27 c1 -19 -1 -32 -4 -29 -3 3 -6 21 -6 39 -1 19 1 32 4 29 3 -3 6 -21
6 -39z m210 17 c-2 -9 -4 -21 -5 -27 -1 -5 -5 1 -9 15 -9 27 -4 43 9 35 4 -3
7 -13 5 -23z m-1258 3 c0 -8 -4 -12 -9 -9 -5 3 -6 10 -3 15 9 13 12 11 12 -6z
m1018 -12 c-1 -16 3 -35 9 -43 9 -13 9 -13 -5 -3 -12 10 -18 50 -10 71 4 10 8
-3 6 -25z m-50 -22 c3 -5 2 -12 -3 -15 -5 -3 -9 1 -9 9 0 17 3 19 12 6z m91
-39 c-17 -16 -18 -16 -5 5 7 12 15 20 18 17 3 -2 -3 -12 -13 -22z"/>
<path d="M4638 3625 c-9 -19 -14 -22 -20 -13 -6 8 -7 4 -3 -11 4 -13 8 -29 9
-35 1 -6 7 -20 14 -31 8 -14 12 -16 12 -5 0 13 1 13 10 0 8 -12 9 -11 7 5 -2
11 -9 33 -16 49 -6 16 -9 31 -6 34 2 3 9 -6 14 -19 7 -16 10 -19 10 -7 1 9 -4
20 -10 23 -6 4 -8 13 -5 21 9 24 -4 15 -16 -11z m12 -70 c0 -3 -3 -5 -7 -5 -4
0 -8 12 -10 27 -2 26 -2 27 7 5 5 -12 10 -24 10 -27z"/>
<path d="M4928 3369 c-10 -16 -14 -27 -8 -24 5 3 11 1 15 -5 4 -6 10 -8 15 -5
5 3 13 -3 19 -12 8 -14 10 -15 11 -3 0 8 -9 21 -21 28 -14 9 -18 19 -14 32 9
29 3 24 -17 -11z"/>
<path d="M5145 1121 c-3 -5 -1 -12 5 -16 5 -3 10 -11 10 -17 0 -6 -7 -5 -17 3
-16 12 -17 12 -5 -2 10 -13 9 -19 -3 -29 -8 -7 -15 -18 -15 -24 0 -8 2 -8 8 0
4 6 15 10 25 8 13 -2 15 1 8 10 -7 9 -7 16 1 24 8 8 8 15 0 25 -7 8 -9 17 -5
20 3 4 4 7 0 7 -3 0 -8 -4 -12 -9z"/>
<path d="M5107 1013 c-2 -5 -3 -16 -2 -25 2 -10 -2 -18 -8 -18 -5 0 -7 -3 -4
-7 4 -3 -1 -15 -10 -26 -10 -11 -13 -17 -6 -14 6 4 14 1 16 -5 4 -10 6 -10 6
0 1 8 6 10 14 6 9 -5 9 -4 0 6 -7 8 -9 20 -4 29 4 9 7 23 6 31 0 8 4 18 10 22
6 5 6 8 -2 8 -6 0 -14 -3 -16 -7z"/>
<path d="M4500 3745 c0 -17 -2 -17 -10 -5 -9 13 -10 13 -11 0 -1 -8 -1 -19 0
-24 1 -5 -5 -16 -12 -25 -10 -11 -12 -23 -6 -38 12 -32 19 -28 14 8 -2 17 -1
28 2 25 3 -3 12 -1 18 4 19 15 37 -13 37 -57 0 -26 3 -32 9 -21 4 8 5 28 0 44
-4 16 -7 44 -6 62 1 18 -3 36 -8 39 -6 4 -8 -3 -5 -15 8 -29 0 -28 -12 1 -8
20 -9 20 -10 2z m21 -41 c8 -17 8 -17 -3 -2 -10 14 -13 15 -23 2 -9 -13 -11
-12 -11 4 0 25 25 22 37 -4z"/>
<path d="M4823 3734 c0 -9 4 -11 12 -4 7 5 14 9 16 7 2 -1 3 0 1 2 -7 11 -29
7 -29 -5z"/>
<path d="M4350 3721 c0 -5 5 -13 10 -16 6 -3 10 -2 10 4 0 5 -4 13 -10 16 -5
3 -10 2 -10 -4z"/>
<path d="M4400 3700 c-7 -13 -4 -22 10 -35 19 -17 19 -17 10 14 -5 17 -5 29
-1 26 13 -7 20 -55 9 -61 -5 -3 -1 -15 8 -25 13 -15 19 -16 25 -7 4 7 4 17 -1
23 -9 11 -17 43 -19 71 -1 17 -31 12 -41 -6z"/>
<path d="M4491 3676 c-7 -8 -10 -20 -6 -26 3 -5 -3 -24 -15 -40 -29 -41 -31
-60 -9 -88 10 -13 15 -31 12 -40 -6 -15 -5 -15 10 -3 18 14 24 37 8 27 -5 -4
-8 2 -6 11 3 24 -6 38 -15 23 -4 -7 -7 0 -7 16 0 16 2 23 4 16 3 -6 9 -9 14
-6 6 3 5 12 -3 22 -11 13 -11 14 1 7 11 -6 13 -4 8 9 -4 9 -3 15 2 11 13 -8
20 17 10 37 -6 11 -5 19 3 24 6 4 8 3 5 -2 -3 -6 -2 -16 3 -24 5 -8 3 -24 -6
-41 -9 -18 -10 -30 -4 -34 6 -3 10 2 11 12 0 16 1 16 8 -1 5 -14 10 -16 15 -7
6 9 11 9 21 1 10 -9 13 -4 12 25 l-1 36 -13 -26 c-18 -33 -31 -24 -31 21 0 43
-14 61 -31 40z"/>
<path d="M4819 3603 c-13 -16 -12 -17 4 -4 16 13 21 21 13 21 -2 0 -10 -8 -17
-17z"/>
<path d="M4577 3579 c-5 -18 -9 -20 -21 -10 -15 12 -24 5 -20 -16 5 -35 7 -36
14 -13 l8 25 1 -25 c1 -19 3 -22 10 -10 6 8 7 18 4 24 -3 5 -1 6 4 3 6 -4 9
-30 8 -59 -2 -35 -1 -46 5 -33 6 16 8 14 7 -13 0 -18 4 -36 8 -40 4 -4 5 18 1
48 -4 30 -9 72 -11 93 -4 47 -10 55 -18 26z"/>
<path d="M4487 3564 c-4 -4 -2 -13 4 -21 6 -7 8 -13 4 -13 -4 0 -3 -6 2 -12 6
-7 11 -20 11 -28 2 -30 9 -51 22 -63 11 -10 12 -8 5 8 -10 28 -17 96 -6 71 5
-14 10 -16 15 -8 12 20 27 3 16 -18 -7 -13 -6 -21 5 -30 8 -7 13 -16 10 -20
-3 -5 -1 -11 5 -15 5 -3 10 1 10 9 0 8 -5 18 -11 22 -6 4 -8 20 -5 40 6 29 4
33 -14 29 -18 -3 -38 16 -38 38 0 5 -4 12 -8 15 -4 4 -4 -3 -1 -15 3 -13 0
-26 -5 -30 -6 -3 -9 -2 -6 3 8 12 -6 47 -15 38z"/>
<path d="M4541 3486 c-10 -11 -9 -21 2 -42 8 -15 17 -22 20 -17 4 6 0 16 -8
23 -11 9 -12 17 -4 31 12 22 6 25 -10 5z"/>
<path d="M4671 3399 c-1 -9 6 -22 14 -29 8 -7 15 -9 15 -5 0 4 6 2 13 -4 11
-8 18 -6 32 9 10 11 23 16 29 13 17 -11 35 -12 41 -3 3 5 1 11 -4 14 -5 4 -13
2 -16 -4 -5 -8 -12 -7 -22 2 -25 20 -46 19 -40 -3 7 -26 -2 -24 -13 4 -6 16
-9 17 -9 5 -1 -27 -20 -31 -30 -6 -7 15 -10 17 -10 7z"/>
<path d="M5039 3368 c7 -10 10 -18 6 -18 -5 0 0 -9 10 -20 16 -18 16 -20 1
-26 -9 -3 -13 -10 -10 -16 3 -5 13 -1 21 9 14 17 14 17 8 -2 -3 -11 -3 -16 1
-12 4 4 14 1 23 -5 9 -7 13 -8 8 -3 -4 4 1 18 10 29 l18 21 -24 -20 c-21 -17
-24 -18 -18 -3 4 11 2 17 -6 15 -7 -1 -11 4 -9 11 1 6 -3 11 -10 10 -7 -2 -12
2 -13 9 0 7 -7 18 -15 25 -12 11 -12 11 -1 -4z"/>
<path d="M5126 3292 c-2 -4 -1 -14 3 -21 6 -10 10 -9 14 3 6 16 -8 32 -17 18z"/>
<path d="M5166 3276 c6 -15 4 -17 -6 -11 -9 6 -11 4 -5 -4 5 -9 10 -10 18 -2
8 8 7 14 -2 24 -10 10 -11 8 -5 -7z"/>
<path d="M5446 3217 c3 -10 9 -15 12 -12 3 3 0 11 -7 18 -10 9 -11 8 -5 -6z"/>
<path d="M5452 3115 c0 -16 2 -22 5 -12 2 9 2 23 0 30 -3 6 -5 -1 -5 -18z"/>
<path d="M5901 3114 c0 -11 3 -14 6 -6 3 7 2 16 -1 19 -3 4 -6 -2 -5 -13z"/>
<path d="M5443 3015 c0 -22 2 -30 4 -17 2 12 2 30 0 40 -3 9 -5 -1 -4 -23z"/>
<path d="M5433 2920 c0 -25 2 -35 4 -22 2 12 2 32 0 45 -2 12 -4 2 -4 -23z"/>
<path d="M5423 2820 c0 -30 2 -43 4 -27 2 15 2 39 0 55 -2 15 -4 2 -4 -28z"/>
<path d="M5413 2680 c0 -36 2 -50 4 -32 2 17 2 47 0 65 -2 17 -4 3 -4 -33z"/>
<path d="M5403 2535 c0 -33 2 -45 4 -27 2 18 2 45 0 60 -2 15 -4 0 -4 -33z"/>
<path d="M5393 2385 c0 -38 2 -53 4 -32 2 20 2 52 0 70 -2 17 -4 1 -4 -38z"/>
<path d="M5383 2245 c0 -38 2 -53 4 -32 2 20 2 52 0 70 -2 17 -4 1 -4 -38z"/>
<path d="M5373 2115 c0 -33 2 -45 4 -27 2 18 2 45 0 60 -2 15 -4 0 -4 -33z"/>
<path d="M5356 1934 c-4 -63 -5 -118 -3 -121 3 -2 8 48 12 112 4 64 5 118 3
121 -3 2 -8 -48 -12 -112z"/>
<path d="M5128 1195 c-4 -4 -5 -12 -2 -19 2 -6 -11 -27 -30 -45 -29 -29 -33
-37 -25 -54 9 -16 6 -24 -16 -46 -15 -14 -25 -21 -21 -14 7 13 -10 28 -18 15
-3 -5 1 -17 8 -28 15 -20 11 -39 -11 -66 -13 -14 -12 -20 1 -41 10 -14 14 -32
10 -42 -5 -13 -4 -16 4 -11 7 4 20 2 29 -3 11 -6 13 -11 5 -11 -7 0 -10 -5 -6
-11 5 -8 9 -7 15 4 5 9 2 27 -8 48 -23 46 -25 89 -5 119 9 14 15 29 14 33 -1
5 7 22 18 38 12 16 17 29 12 29 -6 0 -12 -6 -15 -12 -3 -7 -4 -3 -4 8 1 14 6
20 14 17 7 -3 13 2 13 11 0 9 5 16 10 16 6 0 9 3 8 8 0 4 2 15 6 24 9 19 4 43
-6 33z m-58 -179 c0 -2 -8 -10 -17 -17 -16 -13 -17 -12 -4 4 13 16 21 21 21
13z m-37 -83 c-7 -2 -13 -9 -13 -14 0 -6 6 -7 13 -3 6 4 9 4 5 -1 -4 -4 -4
-13 1 -19 14 -18 22 -48 11 -41 -6 3 -10 11 -10 17 0 6 -7 19 -16 29 -17 18
-12 40 9 38 9 0 9 -2 0 -6z"/>
<path d="M5256 1142 c-3 -5 1 -9 9 -9 8 0 12 4 9 9 -3 4 -7 8 -9 8 -2 0 -6 -4
-9 -8z"/>
<path d="M5246 1032 c-3 -5 1 -9 9 -9 8 0 12 4 9 9 -3 4 -7 8 -9 8 -2 0 -6 -4
-9 -8z"/>
<path d="M3540 1001 c0 -5 5 -13 10 -16 6 -3 10 -2 10 4 0 5 -4 13 -10 16 -5
3 -10 2 -10 -4z"/>
<path d="M3599 998 c-3 -11 -5 -48 -3 -48 11 0 23 40 14 45 -5 3 -10 5 -11 3z"/>
<path d="M5204 979 c-8 -14 14 -19 25 -6 8 10 7 14 -5 14 -8 0 -17 -4 -20 -8z"/>
<path d="M3659 968 c-5 -9 -5 -48 -1 -43 8 7 13 45 7 45 -3 0 -6 -1 -6 -2z"/>
<path d="M3450 951 c0 -10 19 -25 25 -20 1 2 -3 10 -11 17 -8 7 -14 8 -14 3z"/>
<path d="M5173 945 c0 -7 6 -12 14 -11 19 3 21 19 2 21 -9 2 -16 -3 -16 -10z"/>
<path d="M4970 882 c0 -25 16 -37 23 -18 3 8 -1 20 -9 26 -11 10 -14 9 -14 -8z"/>
<path d="M5301 876 c-7 -8 -22 -13 -33 -11 -11 3 -18 1 -14 -2 14 -14 35 -10
52 8 9 10 15 19 12 19 -3 0 -11 -6 -17 -14z"/>
<path d="M5221 848 c-13 -20 -12 -22 1 -11 8 7 18 10 22 6 4 -4 4 0 0 10 -8
21 -6 21 -23 -5z"/>
</g>
</svg>
